<svg width="31" height="31" viewBox="0 0 31 31" fill="none" xmlns="http://www.w3.org/2000/svg">
<path opacity="0.6" d="M17.7795 20.3189C17.7795 22.5667 16.8016 24.5986 15.2396 25.9829C13.8934 27.202 12.1155 27.9386 10.1598 27.9386C5.95622 27.9386 2.54004 24.5224 2.54004 20.3189C2.54004 16.8138 4.92756 13.8421 8.15325 12.9658C9.02952 15.1755 10.9091 16.8773 13.2331 17.5123C13.868 17.6901 14.5411 17.779 15.2396 17.779C15.9381 17.779 16.6112 17.6901 17.2461 17.5123C17.589 18.3758 17.7795 19.3283 17.7795 20.3189Z" fill="#FD8949"/>
<path d="M22.8596 10.1598C22.8596 11.1503 22.6691 12.1028 22.3262 12.9664C21.4499 15.1761 19.5704 16.8778 17.2464 17.5128C16.6114 17.6906 15.9383 17.7795 15.2399 17.7795C14.5414 17.7795 13.8683 17.6906 13.2333 17.5128C10.9093 16.8778 9.02977 15.1761 8.1535 12.9664C7.81061 12.1028 7.62012 11.1503 7.62012 10.1598C7.62012 5.95622 11.0363 2.54004 15.2399 2.54004C19.4434 2.54004 22.8596 5.95622 22.8596 10.1598Z" fill="#FD8949"/>
<path opacity="0.4" d="M27.9388 20.3189C27.9388 24.5224 24.5226 27.9386 20.3191 27.9386C18.3634 27.9386 16.5854 27.202 15.2393 25.9829C16.8013 24.5986 17.7792 22.5667 17.7792 20.3189C17.7792 19.3283 17.5887 18.3758 17.2458 17.5123C19.5698 16.8773 21.4493 15.1755 22.3256 12.9658C25.5513 13.8421 27.9388 16.8138 27.9388 20.3189Z" fill="#FD8949"/>
</svg>
